<svg width="300" height="420" fill="none" xmlns="http://www.w3.org/2000/svg"><g clip-path="url(#a)"><path d="M40.658 80.12c.075-.864 6.272-11.76 13.465-15.545 7.192-3.785 18.21-8.428 28.175-4.714 9.964 3.714 21.19 14.328 19.932 31.185-1.258 16.862-45.963 45.8-41.577 45.839 3.951.035 38.755.035 41.628.035 1.45 0 3.241 1.608 3.214 10.335-.016 7.531-2.05 9.355-3.391 9.351l-62.743-.099c-1.784 0-4.112-5.059-3.924-9.801.196-5.028 2.99-9.755 3.994-9.755.863 0 6.585-7.569 15.346-15.398 11.12-9.943 26.04-21.337 28.348-29.97 3.818-14.276-5.84-17.037-13.77-16.559-7.926.479-14.7 10.433-14.7 10.433s-4.343 5.844-10.128 3.51c-5.782-2.333-3.947-7.985-3.869-8.848z" fill="#1E39CD"/><path d="M137.982 83.43a2.2 2.2 0 0 0-1.599.329c-3.246 2.341 21.888 46.144 18.485 79.306-2.967 28.938-13.213 57.17-17.074 76.961-1.694-6.942-2.885-20.544-5.813-26.27-8.526-16.678-37.054-35.626-35.752-28.252.352 2.004 16.533 15.006 24.749 44.76 2.148 7.774 4.641 27.165 5.311 40.041-8.192-22.595-21.715-54.596-36.042-58.895-26.286-7.884-55.03-1.757-55.739 2.079-.588 3.145 41.98 7.079 54.904 25.749 3.402 4.914 10.086 13.849 13.508 20.889-7.499-5.848-15.915-10.452-15.915-10.452l-2.72 4.93s6.146 3.185 14.335 10.558c3.567 3.209 7.275 8.331 10.332 13.097 3.802 9.134 6.174 15.398 7.459 18.865-6.103-6.926-16.267-17.591-23.29-20.25-10.584-4.008-30.642-6.938-29.58-4.236 1.96 4.966 15.21 8.198 24.276 17.034 5.017 4.891 10.132 10.731 13.75 15.022-2.94-1.702-6.922-3.781-9.968-4.463-5.433-1.22-17.023-2.126-17.278.674-.106 1.153 9.866 2.781 14.272 5.758 4.406 2.981 12.026 10.982 12.026 10.982l26.713-11.402s24.397.718 29.096 2.283c0 0 28.932-71.893 66.832-68.32 37.893 3.573 31.868 65.018 34.22 63.563 7.365-4.55 23.35-76.773-30.849-85.873-14.699-2.471-36.646 13.191-47.978 21.808 6.695-7.355 21.332-25.196 28.285-34.072 11.176-14.265 17.526-47.796 14.072-46.819-3.453.98-12.143 19.897-23.64 32.412-11.5 12.52-27.03 24.569-37.285 41.866-2.332 3.938-10.579 24.223-12.864 30.201.451-1.836 5.687-18.756 6.181-20.18 7.609-22.023 26.353-44.329 26.71-81.597.333-34.939-32.511-76.945-42.13-78.087z" fill="#006F00"/><path d="M178.759 282.598c-1.881-.134-12.484 8.915-16.161 16.092-3.136 6.119-4.759 19.297-5.241 23.768l-1.34 1.06.752-15.348s-1.638-6.66-6.961-8.013c-5.421-1.377-7.789.683-7.789.683s-3.234 3.224-6.13 2.459c-2.901-.769-4.508-5.793-4.508-5.793s-1.803-4.323-8.827-3.515c-7.021.808-6.127 3.138-6.127 3.138l-1.756-1.945s-4.245-2.907-10.003.521c-4.21 2.507-3.422 6.739-3.74 8.068-.188.793 4.5 3.295 4.5 3.295-6.93-.149-7.357 8.735-5.719 9.907l22.672 16.179c-6.35-2.882-11.892-5.032-14.464-5.11-8.074-.259-21.445 2.275-20.853 5.503.353 1.949 12.563.098 21.861 1.741 9.297 1.643 23.51 10.649 31.221 12.202 4.233.855 7.718 1.177 10.038 1.294l26.459 12.712 1.097-10.268-17.494-19.697c4.171-3.695 9.368-8.151 12.779-10.539 6.444-4.507 19.246-10.218 19.246-10.218l-4.144-6.746s-12.504 5.484-19.097 9.743c-.392.251-.811.533-1.254.835 1.152-5.138 2.403-10.605 3.163-13.441 1.682-6.275 10.521-17.093 7.973-18.524a.341.341 0 0 0-.153-.043zm-41.624 25.792c-.831 4.828 4.089 12.774 4.089 12.774s-6.844-7.424-5.653-13.033c.357-1.675 2.109-1.208 1.564.259zm-11.888-.236c.517.138 7.486 8.492 20.488 27.785-8.612-9.256-11.312-15.088-20.81-25.847 0 0-1.113-2.149.322-1.938zm1.43 18.705c-7.831-11.982-9.47-11.311-10.532-12.158-2.744-4.731 6.546 3.31 10.532 12.158z" fill="#1E39CD"/><path d="M64.094 231.644c-14.177 0-24.988 3.021-24.988 11.547 0 8.523 10.027 16.67 24.204 16.67 14.178 0 24.8-2.565 24.8-11.092 0-8.527-9.838-17.125-24.016-17.125zm21.312 17.548c0 .294-.023.573-.066.844-1.686-.667-5.41-2.087-7.401-2.558-2.626-.616-5.35-.557-5.35-.557-3.12.157-3.05 1.051-1.353 2.342.392.298 3.034 1.581 5.206 2.49 1.666.699 4.194 2.103 5.68 2.77-3.058 1.721-7.805 1.741-13.289.639-9.65-1.938-13.59-7.244-11.304-11.59 2.92-5.554 11.68-4.417 13.907-4.205 6.554.62 13.97 6.248 13.97 9.825zM203.85 263.285c-1.329.121-1.043 5.436-3.563 9.699-2.517 4.268-10.427 10.661-12.712 14.638-2.281 3.973-7.62 12.182-3.159 24.643 4.456 12.461 21.801 13.006 26.254 13.257 4.453.255 12.661-1.436 17.835-.902 5.178.533 13.825 6.283 14.758 4.522 1.666-3.13-5.742-11.386-10.501-14.053-4.755-2.667-15.993-.898-15.993-.898s11.238-5.538 14.79-11.065c3.555-5.526 6.518-13.743 3.547-17.642-2.658-3.494-12.927-4.679-18.968-3.894-6.036.784-13.935 4.588-13.935 4.588s6.096-4.392 6.793-9.707c.698-5.314-2.912-13.394-5.146-13.186zm9.297 24.153c6.507.031 14.453 1.82 15.295 3.228 1.662 2.777-3.01 12.539-8.294 16.473-5.292 3.942-12.951 5.977-17.701 3.404a12.801 12.801 0 0 1-2.925-2.137c3.015-.824 10.011-2.864 12.524-4.676 3.234-2.329 5.594-5.138 4.692-6.589-.647-1.043-4.684-1.424-8.533-.286-3.007.886-8.977 4.616-11.513 6.248a10.97 10.97 0 0 1 .118-4.264c1.043-4.773 4.508-8.923 10.63-10.766 1.529-.459 3.54-.647 5.707-.635z" fill="#B93C3C"/></g><defs><clipPath id="a"><path fill="#fff" transform="translate(34.5 58.5)" d="M0 0h231v303H0z"/></clipPath></defs></svg>